<svg xmlns="http://www.w3.org/2000/svg" xmlns:xlink="http://www.w3.org/1999/xlink" width="500" zoomAndPan="magnify" viewBox="0 0 375 374.999991" height="500" preserveAspectRatio="xMidYMid meet" version="1.0"><defs><clipPath id="id1"><path d="M 15.683594 7.484375 L 353.613281 7.484375 L 353.613281 345.414062 L 15.683594 345.414062 Z M 15.683594 7.484375 " clip-rule="nonzero"/></clipPath><clipPath id="id2"><path d="M 36.359375 28.875 L 374.285156 28.875 L 374.285156 366.800781 L 36.359375 366.800781 Z M 36.359375 28.875 " clip-rule="nonzero"/></clipPath><clipPath id="id3"><path d="M 0 43.132812 L 323.847656 43.132812 L 323.847656 366.980469 L 0 366.980469 Z M 0 43.132812 " clip-rule="nonzero"/></clipPath></defs><g clip-path="url(#id1)"><path fill="#d1ef1a" d="M 184.648438 345.414062 C 91.449219 345.414062 15.683594 269.648438 15.683594 176.449219 C 15.683594 83.25 91.449219 7.484375 184.648438 7.484375 C 277.847656 7.484375 353.613281 83.25 353.613281 176.449219 C 353.613281 269.648438 277.847656 345.414062 184.648438 345.414062 Z M 184.648438 17.625 C 97.058594 17.625 25.824219 88.859375 25.824219 176.449219 C 25.824219 264.039062 97.125 335.277344 184.648438 335.277344 C 272.238281 335.277344 343.472656 263.972656 343.472656 176.449219 C 343.472656 88.859375 272.238281 17.625 184.648438 17.625 Z M 184.648438 17.625 " fill-opacity="1" fill-rule="nonzero"/></g><path fill="#d1ef1a" d="M 184.648438 298.105469 C 117.535156 298.105469 62.996094 243.5625 62.996094 176.449219 C 62.996094 109.335938 117.535156 54.863281 184.648438 54.863281 C 251.761719 54.863281 306.234375 109.40625 306.234375 176.449219 C 306.300781 243.496094 251.761719 298.105469 184.648438 298.105469 Z M 184.648438 63.917969 C 122.605469 63.917969 72.1875 114.40625 72.1875 176.382812 C 72.1875 238.359375 122.605469 288.910156 184.648438 288.910156 C 246.691406 288.910156 297.109375 238.425781 297.109375 176.449219 C 297.109375 114.472656 246.691406 63.917969 184.648438 63.917969 Z M 184.648438 63.917969 " fill-opacity="1" fill-rule="nonzero"/><g clip-path="url(#id2)"><path fill="#73830e" d="M 205.324219 366.800781 C 112.121094 366.800781 36.359375 291.039062 36.359375 197.835938 C 36.359375 104.636719 112.121094 28.875 205.324219 28.875 C 298.523438 28.875 374.285156 104.636719 374.285156 197.835938 C 374.285156 291.039062 298.523438 366.800781 205.324219 366.800781 Z M 205.324219 39.011719 C 117.730469 39.011719 46.496094 110.246094 46.496094 197.835938 C 46.496094 285.429688 117.800781 356.664062 205.324219 356.664062 C 292.914062 356.664062 364.148438 285.359375 364.148438 197.835938 C 364.148438 110.246094 292.914062 39.011719 205.324219 39.011719 Z M 205.324219 39.011719 " fill-opacity="1" fill-rule="nonzero"/></g><path fill="#73830e" d="M 205.324219 319.492188 C 138.210938 319.492188 83.667969 264.949219 83.667969 197.835938 C 83.667969 130.726562 138.210938 76.25 205.324219 76.25 C 272.4375 76.25 326.910156 130.792969 326.910156 197.835938 C 326.976562 264.882812 272.4375 319.492188 205.324219 319.492188 Z M 205.324219 85.308594 C 143.28125 85.308594 92.859375 135.792969 92.859375 197.769531 C 92.859375 259.746094 143.28125 310.300781 205.324219 310.300781 C 267.367188 310.300781 317.785156 259.8125 317.785156 197.835938 C 317.785156 135.863281 267.367188 85.308594 205.324219 85.308594 Z M 205.324219 85.308594 " fill-opacity="1" fill-rule="nonzero"/><g clip-path="url(#id3)"><path fill="#d1ef1a" d="M 161.921875 366.980469 C 72.605469 366.980469 0 294.371094 0 205.054688 C 0 115.738281 72.605469 43.132812 161.921875 43.132812 C 251.242188 43.132812 323.847656 115.738281 323.847656 205.054688 C 323.847656 294.371094 251.242188 366.980469 161.921875 366.980469 Z M 161.921875 52.847656 C 77.984375 52.847656 9.714844 121.113281 9.714844 205.054688 C 9.714844 288.996094 78.046875 357.265625 161.921875 357.265625 C 245.863281 357.265625 314.132812 288.933594 314.132812 205.054688 C 314.132812 121.113281 245.863281 52.847656 161.921875 52.847656 Z M 161.921875 52.847656 " fill-opacity="1" fill-rule="nonzero"/></g><path fill="#d1ef1a" d="M 161.921875 321.640625 C 97.609375 321.640625 45.339844 269.371094 45.339844 205.054688 C 45.339844 140.738281 97.609375 88.535156 161.921875 88.535156 C 226.238281 88.535156 278.445312 140.804688 278.445312 205.054688 C 278.507812 269.308594 226.238281 321.640625 161.921875 321.640625 Z M 161.921875 97.214844 C 102.464844 97.214844 54.148438 145.597656 54.148438 204.992188 C 54.148438 264.382812 102.464844 312.832031 161.921875 312.832031 C 221.382812 312.832031 269.699219 264.449219 269.699219 205.054688 C 269.699219 145.664062 221.382812 97.214844 161.921875 97.214844 Z M 161.921875 97.214844 " fill-opacity="1" fill-rule="nonzero"/></svg>